<?xml version="1.0" standalone="no"?>
<!DOCTYPE svg PUBLIC "-//W3C//DTD SVG 20010904//EN"
 "http://www.w3.org/TR/2001/REC-SVG-20010904/DTD/svg10.dtd">
<svg version="1.0" xmlns="http://www.w3.org/2000/svg"
 width="800.000000pt" height="800.000000pt" viewBox="0 0 800.000000 800.000000"
 preserveAspectRatio="xMidYMid meet">

<g transform="translate(0.000000,800.000000) scale(0.100000,-0.100000)"
fill="#000000" stroke="none">
<path d="M3303 5723 c-30 -6 -52 -36 -114 -156 -29 -56 -62 -115 -75 -132 -12
-16 -36 -59 -53 -94 -17 -35 -35 -69 -41 -76 -5 -6 -22 -34 -36 -61 -14 -27
-34 -58 -44 -69 -10 -11 -26 -42 -36 -70 -9 -27 -28 -61 -41 -75 -14 -14 -29
-34 -34 -45 -5 -11 -15 -29 -21 -40 -37 -56 -58 -96 -58 -106 0 -7 -17 -39
-39 -73 -21 -34 -55 -95 -76 -136 -21 -41 -59 -106 -84 -145 -25 -38 -53 -88
-64 -110 -33 -70 -49 -98 -104 -182 -29 -45 -53 -88 -53 -96 0 -8 -12 -31 -26
-53 -14 -21 -34 -52 -43 -68 -9 -17 -29 -50 -45 -74 -23 -34 -29 -53 -29 -97
0 -32 6 -62 14 -73 8 -9 25 -39 39 -65 14 -27 32 -56 41 -66 9 -9 24 -35 33
-57 41 -95 144 -275 164 -288 17 -10 78 77 152 219 23 44 59 106 81 137 21 32
39 65 39 74 0 8 28 60 63 115 34 55 72 121 85 147 12 26 27 54 32 62 83 129
118 189 125 210 4 14 25 51 46 83 21 31 52 88 69 125 18 37 43 81 56 99 13 17
24 35 24 38 0 3 11 21 24 38 22 29 66 118 66 132 0 4 11 21 24 38 13 18 36 55
51 82 15 28 33 57 40 65 7 8 17 30 23 48 6 19 31 64 56 100 24 37 65 108 91
157 26 50 57 104 70 120 12 17 43 70 69 119 26 49 61 109 77 132 48 71 80 146
67 161 -8 10 -73 13 -297 12 -157 -1 -296 -4 -308 -6z"/>
<path d="M1150 5711 c0 -12 52 -125 60 -131 4 -3 22 -34 41 -70 18 -36 43 -79
56 -96 13 -17 23 -38 23 -48 0 -9 25 -60 57 -114 57 -98 66 -115 99 -187 10
-22 29 -54 41 -71 13 -17 23 -34 23 -39 0 -4 13 -29 28 -54 15 -25 36 -66 47
-91 10 -25 29 -59 42 -77 13 -17 23 -35 23 -39 0 -4 13 -28 28 -53 16 -25 36
-66 45 -89 10 -24 32 -67 50 -95 19 -29 57 -99 86 -157 57 -114 66 -131 96
-175 12 -17 26 -42 33 -57 6 -16 18 -28 27 -28 17 0 97 119 128 190 11 25 29
58 40 74 23 32 40 63 93 165 19 34 54 93 78 130 24 36 58 95 76 131 18 36 57
102 86 147 30 44 54 86 54 91 0 13 83 155 116 199 13 17 24 40 24 51 0 10 13
37 29 59 16 22 36 53 45 69 9 16 25 43 36 59 21 32 60 114 60 124 0 3 10 17
23 31 31 35 87 127 87 145 0 13 -115 15 -940 15 -534 0 -940 -4 -940 -9z"/>
<path d="M4157 5668 c-70 -111 -107 -176 -107 -188 0 -7 -10 -27 -23 -44 -13
-17 -33 -52 -45 -77 -12 -25 -31 -55 -42 -66 -10 -12 -22 -34 -26 -50 -4 -15
-27 -55 -52 -89 -25 -34 -67 -103 -94 -155 -28 -52 -61 -109 -75 -127 -13 -18
-40 -63 -59 -100 -59 -114 -104 -195 -117 -212 -7 -8 -22 -35 -32 -60 -10 -25
-24 -52 -31 -60 -6 -8 -23 -35 -36 -60 -14 -25 -39 -68 -56 -96 -18 -28 -32
-57 -32 -64 0 -7 -18 -39 -40 -71 -22 -32 -40 -62 -40 -66 0 -3 -6 -14 -14
-22 -8 -9 -33 -53 -55 -97 -22 -45 -46 -88 -53 -95 -26 -28 -48 -78 -48 -108
0 -17 13 -49 30 -74 17 -25 30 -48 30 -51 0 -4 11 -24 25 -46 14 -22 25 -48
25 -59 0 -10 7 -24 15 -31 8 -7 15 -17 15 -22 0 -6 24 -49 53 -96 29 -48 63
-109 74 -137 12 -27 26 -51 31 -53 10 -3 92 97 92 112 0 14 43 101 64 131 26
36 30 43 84 147 24 46 63 112 87 148 23 36 46 75 49 86 7 22 96 175 119 203
18 23 47 78 47 89 0 6 16 34 36 63 20 30 40 63 45 74 20 44 102 191 116 207 8
9 35 56 60 104 61 120 75 145 99 175 11 14 42 71 69 125 26 54 65 122 87 150
21 28 38 57 38 65 0 8 9 28 20 44 l20 30 992 5 993 5 3 32 c4 38 -15 76 -83
169 -62 84 -115 138 -175 179 -61 42 -241 134 -263 135 -10 0 -28 5 -40 12
-49 26 -195 31 -954 35 l-792 3 -34 -52z"/>
<path d="M4653 4928 c-5 -7 -24 -42 -43 -78 -18 -36 -49 -90 -69 -120 -20 -30
-45 -75 -56 -100 -11 -25 -36 -70 -57 -101 -20 -30 -54 -89 -74 -130 -20 -41
-50 -94 -68 -119 -17 -25 -41 -66 -54 -92 -13 -26 -27 -50 -33 -53 -5 -4 -9
-13 -9 -21 0 -8 -17 -41 -37 -72 -51 -79 -52 -79 -107 -184 -26 -51 -65 -119
-87 -150 -21 -31 -41 -69 -45 -85 -4 -15 -15 -37 -24 -48 -10 -11 -30 -42 -45
-70 -14 -27 -35 -60 -45 -72 -11 -13 -23 -35 -26 -50 -4 -15 -20 -48 -35 -73
-15 -25 -39 -64 -53 -87 -48 -78 -113 -72 812 -67 933 5 1051 7 1142 24 68 13
232 63 263 80 9 6 38 17 64 26 43 15 167 92 275 171 26 19 84 78 130 131 45
53 93 108 105 122 13 14 23 29 23 34 0 5 24 48 53 95 29 47 61 111 71 141 10
30 22 69 28 85 6 17 13 44 15 60 3 17 9 35 14 40 15 19 34 188 33 295 0 149
-14 241 -56 365 -5 17 -13 45 -18 63 -5 19 -11 37 -15 40 -10 11 -657 14 -667
4 -5 -5 6 -29 28 -58 40 -52 94 -154 94 -177 0 -8 7 -31 15 -52 9 -20 18 -80
21 -133 12 -209 -46 -406 -149 -508 -18 -17 -46 -49 -64 -71 -17 -22 -57 -53
-87 -68 -31 -16 -61 -34 -67 -42 -7 -7 -19 -13 -28 -13 -9 0 -21 -4 -26 -9
-14 -13 -91 -41 -145 -52 -121 -25 -219 -29 -565 -27 l-370 3 3 25 c3 35 24
76 92 185 32 51 61 104 65 117 4 12 31 59 60 103 28 44 62 100 74 125 27 55
38 73 78 130 17 25 45 75 63 112 18 37 38 73 46 79 8 6 14 17 14 23 0 6 20 42
45 79 25 38 45 75 45 83 0 13 26 61 40 74 8 7 30 59 30 70 0 16 -605 13 -617
-2z"/>
</g>
</svg>
